# xmcd CD database file
#
# Track frame offsets:
#	150
#	10870
#	21325
#	33900
#	45465
#	59290
#	69470
#	85180
#	94397
#	106995
#	117647
#	127982
#	138640
#	153325
#	164075
#	175467
#	186522
#	198345
#	210845
#	225260
#
# Disc length: 3181 seconds
#
# Revision: 0
# Processed by: cddbd v1.5.1PL0 Copyright (c) Steve Scherf et al.
# Submitted via: CDex 1.51
#
DISCID=130c6b14
DTITLE=Various Artist - みんなのうた　ヒットセレクションVOL1
DYEAR=1900
DGENRE=Vocal
TTITLE0=おふろのうた
TTITLE1=ケンちゃん
TTITLE2=赤い帽子
TTITLE3=ありがとう・さよなら
TTITLE4=みんなおやすみ
TTITLE5=カメレオン
TTITLE6=大きな古時計
TTITLE7=パンダ・ダ・パ・ヤッ
TTITLE8=トレロカモミロ
TTITLE9=モンキーパズル
TTITLE10=秋物語
TTITLE11=おじいさんの電車
TTITLE12=オナカの大きな王子さま
TTITLE13=われないタマゴ
TTITLE14=ヒロミ
TTITLE15=虫歯の子どもの誕生日
TTITLE16=天使のパンツ
TTITLE17=動物園へ行こう
TTITLE18=パパ！教えて
TTITLE19=おもいでのアルバム
EXTD=
EXTT0=
EXTT1=
EXTT2=
EXTT3=
EXTT4=
EXTT5=
EXTT6=
EXTT7=
EXTT8=
EXTT9=
EXTT10=
EXTT11=
EXTT12=
EXTT13=
EXTT14=
EXTT15=
EXTT16=
EXTT17=
EXTT18=
EXTT19=
PLAYORDER=
